<!--?xml version="1.0" encoding="UTF-8"?-->
<svg data-name="Layer 1" viewBox="0 0 1159.7 374" xmlns="http://www.w3.org/2000/svg">
<defs>
<style>.cls-1{font-size:225px;font-family:SalmaPro-Medium, Salma Pro;font-weight:500;letter-spacing:-0.11em;}.cls-2{letter-spacing:-0.05em;}.cls-3{letter-spacing:-0.04em;}.cls-4{letter-spacing:-0.05em;}.cls-5{letter-spacing:-0.05em;}.cls-6{letter-spacing:-0.04em;}.cls-7{letter-spacing:-0.04em;}.cls-8,.cls-9{fill:#fff;}.cls-8{stroke:#000;stroke-miterlimit:10;stroke-width:0.25px;}</style>
</defs>
<text class="cls-1" transform="translate(337.1 252.39)">T<tspan class="cls-2" x="114.3" y="0">r</tspan><tspan class="cls-3" x="191.02" y="0">a</tspan><tspan class="cls-4" x="309.15" y="0">de</tspan><tspan class="cls-5" x="558.68" y="0">f</tspan><tspan class="cls-6" x="632.93" y="0">u</tspan><tspan class="cls-7" x="758.7" y="0">l</tspan></text>
<rect width="302" height="374" rx="25"></rect>
<path class="cls-8" transform="translate(-321.29 -352.65)" d="M346.91,452.39c11.27-11.31,31.59-17.15,52-23.31C450.83,412.66,510,400,581.74,382.52c6.32,2,4.92,6.68,5,11.35-4.45,22.83-18,52-34.51,82.67C534.52,491.68,519,491.39,503.81,496c-1.68.16-3.76,2.44-4.15,4.58A378.36,378.36,0,0,0,490,606c2.06,31.31,8.61,59.54,18.48,90.45,1,3.49-.19,4.74-1.26,4.17-13,3.42-29.27-2.8-45.72-6.25-3.44-1.1-6.82-.5-9.94-4.73-11.89-17.47-15.24-40-19-61.89-7-36.18-7.86-71.94-9.77-113.06-.1-4.87-1.1-10.59-6-10.53-12.4-.28-22.32,5.08-32.9,7.9-2.83.76-4.57-1.69-5.28-3.45-11.39-14.48-20.56-30.93-29.36-47.74-1.37-2.65-4.21-5.92-2.36-8.47Z"></path>
<path class="cls-9" transform="translate(-321.29 -352.65)" d="m431.29 506.65"></path>
<path class="cls-9" transform="translate(-321.29 -352.65)" d="m431.29 522.65"></path>
<path class="cls-9" transform="translate(-321.29 -352.65)" d="m419.29 507.65"></path>
<path class="cls-9" transform="translate(-321.29 -352.65)" d="m479.29 387.65"></path>
<text class="cls-1" transform="translate(337.1 252.39)">T<tspan class="cls-2" x="114.3" y="0">r</tspan><tspan class="cls-3" x="191.02" y="0">a</tspan><tspan class="cls-4" x="309.15" y="0">de</tspan><tspan class="cls-5" x="558.68" y="0">f</tspan><tspan class="cls-6" x="632.93" y="0">u</tspan><tspan class="cls-7" x="758.7" y="0">l</tspan></text>
<rect width="302" height="374" rx="25"></rect>
<path class="cls-8" transform="translate(-321.29 -352.65)" d="M346.91,452.39c11.27-11.31,31.59-17.15,52-23.31C450.83,412.66,510,400,581.74,382.52c6.32,2,4.92,6.68,5,11.35-4.45,22.83-18,52-34.51,82.67C534.52,491.68,519,491.39,503.81,496c-1.68.16-3.76,2.44-4.15,4.58A378.36,378.36,0,0,0,490,606c2.06,31.31,8.61,59.54,18.48,90.45,1,3.49-.19,4.74-1.26,4.17-13,3.42-29.27-2.8-45.72-6.25-3.44-1.1-6.82-.5-9.94-4.73-11.89-17.47-15.24-40-19-61.89-7-36.18-7.86-71.94-9.77-113.06-.1-4.87-1.1-10.59-6-10.53-12.4-.28-22.32,5.08-32.9,7.9-2.83.76-4.57-1.69-5.28-3.45-11.39-14.48-20.56-30.93-29.36-47.74-1.37-2.65-4.21-5.92-2.36-8.47Z"></path>
<path class="cls-9" transform="translate(-321.29 -352.65)" d="m431.29 506.65"></path>
<path class="cls-9" transform="translate(-321.29 -352.65)" d="m431.29 522.65"></path>
<path class="cls-9" transform="translate(-321.29 -352.65)" d="m419.29 507.65"></path>
<path class="cls-9" transform="translate(-321.29 -352.65)" d="m479.29 387.65"></path>
<text class="cls-1" transform="translate(337.1 252.39)">T<tspan class="cls-2" x="114.3" y="0">r</tspan><tspan class="cls-3" x="191.02" y="0">a</tspan><tspan class="cls-4" x="309.15" y="0">de</tspan><tspan class="cls-5" x="558.68" y="0">f</tspan><tspan class="cls-6" x="632.93" y="0">u</tspan><tspan class="cls-7" x="758.7" y="0">l</tspan></text>
<rect width="302" height="374" rx="25"></rect>
<path class="cls-8" transform="translate(-321.29 -352.65)" d="M346.91,452.39c11.27-11.31,31.59-17.15,52-23.31C450.83,412.66,510,400,581.74,382.52c6.32,2,4.92,6.68,5,11.35-4.45,22.83-18,52-34.51,82.67C534.52,491.68,519,491.39,503.81,496c-1.68.16-3.76,2.44-4.15,4.58A378.36,378.36,0,0,0,490,606c2.06,31.31,8.61,59.54,18.48,90.45,1,3.49-.19,4.74-1.26,4.17-13,3.42-29.27-2.8-45.72-6.25-3.44-1.1-6.82-.5-9.94-4.73-11.89-17.47-15.24-40-19-61.89-7-36.18-7.86-71.94-9.77-113.06-.1-4.87-1.1-10.59-6-10.53-12.4-.28-22.32,5.08-32.9,7.9-2.83.76-4.57-1.69-5.28-3.45-11.39-14.48-20.56-30.93-29.36-47.74-1.37-2.65-4.21-5.92-2.36-8.47Z"></path>
<path class="cls-9" transform="translate(-321.29 -352.65)" d="m431.29 506.65"></path>
<path class="cls-9" transform="translate(-321.29 -352.65)" d="m431.29 522.65"></path>
<path class="cls-9" transform="translate(-321.29 -352.65)" d="m419.29 507.65"></path>
<path class="cls-9" transform="translate(-321.29 -352.65)" d="m479.29 387.65"></path>
<text class="cls-1" transform="translate(337.1 252.39)">T<tspan class="cls-2" x="114.3" y="0">r</tspan><tspan class="cls-3" x="191.02" y="0">a</tspan><tspan class="cls-4" x="309.15" y="0">de</tspan><tspan class="cls-5" x="558.68" y="0">f</tspan><tspan class="cls-6" x="632.93" y="0">u</tspan><tspan class="cls-7" x="758.7" y="0">l</tspan></text>
<rect width="302" height="374" rx="25"></rect>
<path class="cls-8" transform="translate(-321.29 -352.65)" d="M346.91,452.39c11.27-11.31,31.59-17.15,52-23.31C450.83,412.66,510,400,581.74,382.52c6.32,2,4.92,6.68,5,11.35-4.45,22.83-18,52-34.51,82.67C534.52,491.68,519,491.39,503.81,496c-1.68.16-3.76,2.44-4.15,4.58A378.36,378.36,0,0,0,490,606c2.06,31.31,8.61,59.54,18.48,90.45,1,3.49-.19,4.74-1.26,4.17-13,3.42-29.27-2.8-45.72-6.25-3.44-1.1-6.82-.5-9.94-4.73-11.89-17.47-15.24-40-19-61.89-7-36.18-7.86-71.94-9.77-113.06-.1-4.87-1.1-10.59-6-10.53-12.4-.28-22.32,5.08-32.9,7.9-2.83.76-4.57-1.69-5.28-3.45-11.39-14.48-20.56-30.93-29.36-47.74-1.37-2.65-4.21-5.92-2.36-8.47Z"></path>
<path class="cls-9" transform="translate(-321.29 -352.65)" d="m431.29 506.65"></path>
<path class="cls-9" transform="translate(-321.29 -352.65)" d="m431.29 522.65"></path>
<path class="cls-9" transform="translate(-321.29 -352.65)" d="m419.29 507.65"></path>
<path class="cls-9" transform="translate(-321.29 -352.65)" d="m479.29 387.65"></path>
</svg>