<?xml version="1.0" standalone="no"?>
<!DOCTYPE svg PUBLIC "-//W3C//DTD SVG 20010904//EN"
 "http://www.w3.org/TR/2001/REC-SVG-20010904/DTD/svg10.dtd">
<svg version="1.0" xmlns="http://www.w3.org/2000/svg"
 width="512.000000pt" height="512.000000pt" viewBox="0 0 512.000000 512.000000"
 preserveAspectRatio="xMidYMid meet">

<g transform="translate(0.000000,512.000000) scale(0.100000,-0.100000)"
fill="#000000" stroke="none">
<path d="M3446 4950 c-65 -560 -157 -767 -390 -880 -130 -63 -335 -109 -626
-140 -58 -7 -112 -14 -120 -17 -8 -3 68 -16 170 -29 717 -92 853 -216 945
-859 13 -93 27 -201 31 -240 l8 -70 8 65 c59 491 97 643 195 792 116 176 302
250 786 313 65 8 132 15 148 15 58 0 19 17 -53 24 -145 13 -365 49 -476 77
-292 73 -427 199 -505 470 -31 107 -53 229 -81 454 l-22 180 -18 -155z"/>
<path d="M1420 4242 c0 -17 -7 -84 -15 -149 -40 -311 -88 -454 -186 -558 -102
-108 -232 -152 -584 -199 l-170 -23 65 -7 c172 -20 351 -50 428 -72 298 -86
385 -223 446 -699 19 -149 24 -172 30 -135 3 25 15 111 26 191 50 363 121 502
305 596 73 38 250 79 441 103 93 11 173 22 177 23 4 1 -73 13 -173 25 -576 73
-685 182 -760 766 -20 155 -30 202 -30 138z"/>
<path d="M2672 3302 c-82 -735 -196 -1049 -446 -1226 -217 -154 -530 -230
-1271 -307 -5 0 78 -11 186 -24 760 -89 1035 -184 1227 -422 158 -196 246
-528 314 -1180 6 -67 13 -121 15 -120 1 2 11 86 23 187 58 517 120 785 228
995 63 119 180 240 302 307 105 59 290 119 485 158 149 29 603 90 672 90 75 0
21 10 -192 35 -758 89 -1043 198 -1225 465 -131 193 -203 475 -270 1064 -11
99 -22 181 -23 182 -1 2 -13 -90 -25 -204z"/>
</g>
</svg>
